STARTFONT 2.1
FONT -Adobe-ITC Avant Garde Gothic-Book-R-Normal--34-240-100-100-P-183-ISO8859-1
SIZE 24 100 100
FONTBOUNDINGBOX 41 39 -4 -7

STARTPROPERTIES 25
FONTNAME_REGISTRY ""
FAMILY_NAME "ITC Avant Garde Gothic"
FOUNDRY "Adobe"
WEIGHT_NAME "Book"
SLANT "R"
SETWIDTH_NAME "Normal"
ADD_STYLE_NAME ""
PIXEL_SIZE 34
POINT_SIZE 240
RESOLUTION_X 100
RESOLUTION_Y 100
SPACING "P"
AVERAGE_WIDTH 183
CHARSET_REGISTRY "ISO8859"
CHARSET_ENCODING "1"
CHARSET_COLLECTIONS "ASCII ISO8859-1 ADOBE-STANDARD"
FULL_NAME "ITC Avant Garde Gothic Book"
COPYRIGHT "Copyright (c) 1987 Adobe Systems, Inc., Portions Copyright 1988 Digital Equipment Corp."
CAP_HEIGHT 25
X_HEIGHT 19
WEIGHT 10
QUAD_WIDTH 22
DEFAULT_CHAR 32
FONT_DESCENT 6
FONT_ASCENT 28
ENDPROPERTIES

CHARS 190

STARTCHAR space
ENCODING 32
SWIDTH 277 0
DWIDTH 9 0
BBX 1 1 0 0
BITMAP
00
ENDCHAR

STARTCHAR exclam
ENCODING 33
SWIDTH 295 0
DWIDTH 10 0
BBX 2 25 4 0
BITMAP
C0
C0
C0
C0
C0
C0
C0
C0
C0
C0
C0
C0
C0
C0
C0
C0
C0
C0
00
00
00
C0
C0
C0
C0
ENDCHAR

STARTCHAR quotedbl
ENCODING 34
SWIDTH 309 0
DWIDTH 10 0
BBX 6 8 2 17
BITMAP
CC
CC
CC
CC
CC
CC
CC
CC
ENDCHAR

STARTCHAR numbersign
ENCODING 35
SWIDTH 720 0
DWIDTH 18 0
BBX 17 24 0 0
BITMAP
004400
004400
00CC00
00CC00
008800
019800
019800
011000
3FFF80
3FFF80
033000
022000
062000
066000
FFFE00
FFFE00
044000
0CC000
0CC000
088000
198000
198000
110000
110000
ENDCHAR

STARTCHAR dollar
ENCODING 36
SWIDTH 554 0
DWIDTH 18 0
BBX 13 29 2 -2
BITMAP
0300
0300
0300
0FC0
1FF0
3830
3038
6018
6018
6000
6000
3000
3C00
1F80
07E0
00F0
0030
0018
0018
C018
C018
E018
6030
7870
3FE0
0FC0
0300
0300
0300
ENDCHAR

STARTCHAR percent
ENCODING 37
SWIDTH 775 0
DWIDTH 25 0
BBX 22 25 1 0
BITMAP
1E0180
7F8180
738380
E1C300
C0C700
C0C700
C0C600
E1CE00
738C00
7F9C00
1E1800
003800
003000
003000
0071E0
0067F8
00E738
00CE1C
01CC0C
018C0C
038C0C
030E1C
030738
0707F8
0601E0
ENDCHAR

STARTCHAR ampersand
ENCODING 38
SWIDTH 757 0
DWIDTH 25 0
BBX 22 25 2 0
BITMAP
03E000
0FF800
0C1800
180C00
180C00
180C00
180C00
1C1800
0E3800
0FF070
07C060
1F80E0
3DC0C0
70E0C0
607180
E03980
C01F80
C00F00
C00700
C00780
E00DC0
601CE0
787870
3FF038
0FC01C
ENDCHAR

STARTCHAR quoteright
ENCODING 39
SWIDTH 351 0
DWIDTH 12 0
BBX 5 6 3 19
BITMAP
38
30
70
70
60
E0
ENDCHAR

STARTCHAR parenleft
ENCODING 40
SWIDTH 369 0
DWIDTH 12 0
BBX 9 29 2 -4
BITMAP
0180
0380
0700
0E00
1C00
3800
3800
7000
7000
6000
E000
E000
C000
C000
C000
C000
C000
E000
E000
6000
7000
7000
3800
3800
1C00
0E00
0700
0380
0180
ENDCHAR

STARTCHAR parenright
ENCODING 41
SWIDTH 369 0
DWIDTH 12 0
BBX 9 29 1 -4
BITMAP
C000
E000
7000
3800
1C00
0E00
0E00
0700
0700
0300
0380
0380
0180
0180
0180
0180
0180
0380
0380
0300
0700
0700
0E00
0E00
1C00
3800
7000
E000
C000
ENDCHAR

STARTCHAR asterisk
ENCODING 42
SWIDTH 425 0
DWIDTH 14 0
BBX 9 9 2 16
BITMAP
2200
7700
3600
1C00
FF80
FF80
3600
7700
2200
ENDCHAR

STARTCHAR plus
ENCODING 43
SWIDTH 606 0
DWIDTH 20 0
BBX 18 18 1 1
BITMAP
00C000
00C000
00C000
00C000
00C000
00C000
00C000
00C000
FFFFC0
FFFFC0
00C000
00C000
00C000
00C000
00C000
00C000
00C000
00C000
ENDCHAR

STARTCHAR comma
ENCODING 44
SWIDTH 277 0
DWIDTH 9 0
BBX 5 6 3 -2
BITMAP
38
38
30
70
60
E0
ENDCHAR

STARTCHAR minus
ENCODING 45
SWIDTH 606 0
DWIDTH 20 0
BBX 16 2 2 9
BITMAP
FFFF
FFFF
ENDCHAR

STARTCHAR period
ENCODING 46
SWIDTH 277 0
DWIDTH 9 0
BBX 2 4 3 0
BITMAP
C0
C0
C0
C0
ENDCHAR

STARTCHAR slash
ENCODING 47
SWIDTH 437 0
DWIDTH 15 0
BBX 12 29 1 -4
BITMAP
0030
0070
0060
0060
00E0
00C0
01C0
01C0
0180
0380
0380
0300
0700
0700
0600
0E00
0E00
0C00
1C00
1C00
1800
3800
3000
3000
7000
6000
6000
E000
C000
ENDCHAR

STARTCHAR zero
ENCODING 48
SWIDTH 554 0
DWIDTH 18 0
BBX 16 25 1 0
BITMAP
07E0
1FF8
3C3C
700E
6006
E007
C003
C003
C003
C003
C003
C003
C003
C003
C003
C003
C003
C003
C003
E007
6006
700E
3C3C
1FF8
07E0
ENDCHAR

STARTCHAR one
ENCODING 49
SWIDTH 554 0
DWIDTH 18 0
BBX 6 25 5 0
BITMAP
FC
FC
0C
0C
0C
0C
0C
0C
0C
0C
0C
0C
0C
0C
0C
0C
0C
0C
0C
0C
0C
0C
0C
0C
0C
ENDCHAR

STARTCHAR two
ENCODING 50
SWIDTH 554 0
DWIDTH 18 0
BBX 15 25 1 0
BITMAP
07C0
1FF0
3C78
701C
600C
C00E
C006
C006
0006
000E
000C
001C
0038
0070
00E0
01C0
0380
0700
0E00
1C00
3800
7000
E000
FFFE
FFFE
ENDCHAR

STARTCHAR three
ENCODING 51
SWIDTH 554 0
DWIDTH 18 0
BBX 15 25 1 0
BITMAP
03C0
0FF0
1C38
381C
300C
300C
000C
0018
0038
0070
03E0
03F0
0078
001C
000C
000E
0006
C006
C006
E00E
600C
701C
3C78
1FF0
07C0
ENDCHAR

STARTCHAR four
ENCODING 52
SWIDTH 554 0
DWIDTH 18 0
BBX 16 25 0 0
BITMAP
000C
001C
003C
003C
006C
00EC
01CC
018C
038C
030C
060C
0E0C
0C0C
1C0C
380C
300C
700C
600C
FFFF
FFFF
000C
000C
000C
000C
000C
ENDCHAR

STARTCHAR five
ENCODING 53
SWIDTH 554 0
DWIDTH 18 0
BBX 16 25 1 0
BITMAP
1FFC
1FFC
1800
1800
1800
1800
3000
3000
33E0
3FF8
3E3C
380E
3006
0007
0003
0003
0003
E003
E003
6007
7006
380E
3E3C
0FF8
03E0
ENDCHAR

STARTCHAR six
ENCODING 54
SWIDTH 554 0
DWIDTH 18 0
BBX 16 25 1 0
BITMAP
00E0
01C0
0180
0380
0700
0600
0E00
0C00
1FE0
3FF8
3C3C
700E
700E
E007
E007
C003
C003
C003
C003
E007
6006
700E
3C3C
1FF8
07E0
ENDCHAR

STARTCHAR seven
ENCODING 55
SWIDTH 554 0
DWIDTH 18 0
BBX 13 25 2 0
BITMAP
FFF8
FFF8
0018
0018
0030
0030
0070
0060
00E0
00C0
00C0
0180
0180
0380
0300
0300
0600
0600
0E00
0C00
1C00
1800
1800
3800
3000
ENDCHAR

STARTCHAR eight
ENCODING 56
SWIDTH 554 0
DWIDTH 18 0
BBX 14 25 2 0
BITMAP
0780
1FE0
3CF0
3030
7038
6018
6018
7038
3030
3870
1FC0
1FE0
3CF0
7038
6018
E01C
C00C
C00C
C00C
E01C
6018
7038
3CF0
1FE0
0780
ENDCHAR

STARTCHAR nine
ENCODING 57
SWIDTH 554 0
DWIDTH 18 0
BBX 16 25 1 0
BITMAP
07E0
1FF8
3C3C
700E
6006
E007
E003
C003
C003
C003
E007
E007
600E
701E
3C7C
1FFC
07D8
0030
0070
0060
00E0
00C0
0180
0380
0700
ENDCHAR

STARTCHAR colon
ENCODING 58
SWIDTH 277 0
DWIDTH 9 0
BBX 2 17 4 0
BITMAP
C0
C0
C0
C0
00
00
00
00
00
00
00
00
00
C0
C0
C0
C0
ENDCHAR

STARTCHAR semicolon
ENCODING 59
SWIDTH 277 0
DWIDTH 9 0
BBX 5 19 1 -2
BITMAP
18
18
18
18
00
00
00
00
00
00
00
00
00
38
38
30
70
60
E0
ENDCHAR

STARTCHAR less
ENCODING 60
SWIDTH 606 0
DWIDTH 20 0
BBX 16 18 2 1
BITMAP
0001
0007
001F
007C
01F0
07C0
1F00
7C00
F000
F000
7C00
1F00
07C0
01F0
007C
001F
0007
0001
ENDCHAR

STARTCHAR equal
ENCODING 61
SWIDTH 606 0
DWIDTH 20 0
BBX 16 8 2 6
BITMAP
FFFF
FFFF
0000
0000
0000
0000
FFFF
FFFF
ENDCHAR

STARTCHAR greater
ENCODING 62
SWIDTH 606 0
DWIDTH 20 0
BBX 16 18 2 1
BITMAP
8000
E000
F800
3E00
0F80
03E0
00F8
003E
000F
000F
003E
00F8
03E0
0F80
3E00
F800
E000
8000
ENDCHAR

STARTCHAR question
ENCODING 63
SWIDTH 591 0
DWIDTH 19 0
BBX 15 25 2 0
BITMAP
07E0
1FF8
3C3C
700C
600E
E006
C006
C006
000E
000C
001C
0038
0070
00E0
00C0
0180
0180
0180
0180
0000
0000
0180
0180
0180
0180
ENDCHAR

STARTCHAR at
ENCODING 64
SWIDTH 867 0
DWIDTH 29 0
BBX 24 25 2 0
BITMAP
007E00
01FFC0
0780F0
0E0038
1C000C
381E06
307F66
60E3E3
61C1C3
C381C3
C301C3
C70183
C60183
C60386
C60306
C6070C
C60E0C
671E18
63FFF0
71E3E6
30000C
1C0038
0F01F0
07FFC0
01FE00
ENDCHAR

STARTCHAR A
ENCODING 65
SWIDTH 740 0
DWIDTH 24 0
BBX 21 25 1 0
BITMAP
007000
007000
00F800
00D800
01DC00
018C00
018C00
030600
030600
070700
060300
060300
0E0380
0C0180
0C0180
1FFFC0
1FFFC0
3800E0
300060
700070
600030
600030
E00038
C00018
C00018
ENDCHAR

STARTCHAR B
ENCODING 66
SWIDTH 574 0
DWIDTH 19 0
BBX 14 25 3 0
BITMAP
FF80
FFE0
C0F0
C030
C038
C018
C018
C018
C038
C070
C0E0
FFC0
FFE0
C0F0
C038
C018
C01C
C00C
C00C
C01C
C018
C038
C0F0
FFE0
FF80
ENDCHAR

STARTCHAR C
ENCODING 67
SWIDTH 813 0
DWIDTH 26 0
BBX 22 25 2 0
BITMAP
00FF00
03FFC0
0F81F0
1E0078
38001C
30001C
700000
600000
E00000
C00000
C00000
C00000
C00000
C00000
C00000
C00000
E00000
600000
700000
30001C
38001C
1E0078
0F81F0
03FFC0
00FF00
ENDCHAR

STARTCHAR D
ENCODING 68
SWIDTH 744 0
DWIDTH 24 0
BBX 19 25 3 0
BITMAP
FFE000
FFFC00
C01E00
C00700
C00380
C00180
C001C0
C000C0
C000E0
C00060
C00060
C00060
C00060
C00060
C00060
C00060
C000E0
C000C0
C001C0
C00180
C00380
C00F00
C03E00
FFF800
FFE000
ENDCHAR

STARTCHAR E
ENCODING 69
SWIDTH 536 0
DWIDTH 17 0
BBX 12 25 3 0
BITMAP
FFF0
FFF0
C000
C000
C000
C000
C000
C000
C000
C000
C000
FFF0
FFF0
C000
C000
C000
C000
C000
C000
C000
C000
C000
C000
FFF0
FFF0
ENDCHAR

STARTCHAR F
ENCODING 70
SWIDTH 485 0
DWIDTH 16 0
BBX 11 25 3 0
BITMAP
FFE0
FFE0
C000
C000
C000
C000
C000
C000
C000
C000
C000
FFE0
FFE0
C000
C000
C000
C000
C000
C000
C000
C000
C000
C000
C000
C000
ENDCHAR

STARTCHAR G
ENCODING 71
SWIDTH 872 0
DWIDTH 28 0
BBX 24 25 2 0
BITMAP
00FF00
03FFE0
0F81F0
1E0038
38001C
30000C
70000C
600000
E00000
C00000
C00000
C00000
C00000
C00000
C07FFF
C07FFF
E00006
600006
70000E
30000C
38001C
1E0078
0F80F0
03FFC0
00FF00
ENDCHAR

STARTCHAR H
ENCODING 72
SWIDTH 683 0
DWIDTH 22 0
BBX 16 25 3 0
BITMAP
C003
C003
C003
C003
C003
C003
C003
C003
C003
C003
C003
FFFF
FFFF
C003
C003
C003
C003
C003
C003
C003
C003
C003
C003
C003
C003
ENDCHAR

STARTCHAR I
ENCODING 73
SWIDTH 226 0
DWIDTH 7 0
BBX 2 25 3 0
BITMAP
C0
C0
C0
C0
C0
C0
C0
C0
C0
C0
C0
C0
C0
C0
C0
C0
C0
C0
C0
C0
C0
C0
C0
C0
C0
ENDCHAR

STARTCHAR J
ENCODING 74
SWIDTH 482 0
DWIDTH 16 0
BBX 12 25 1 0
BITMAP
0030
0030
0030
0030
0030
0030
0030
0030
0030
0030
0030
0030
0030
0030
0030
0030
0030
0030
0030
C030
C030
E060
70E0
3FC0
0F00
ENDCHAR

STARTCHAR K
ENCODING 75
SWIDTH 591 0
DWIDTH 19 0
BBX 16 25 3 0
BITMAP
C007
C00E
C01C
C018
C030
C070
C0E0
C1C0
C180
C300
C700
CE00
DC00
FE00
F700
E380
C1C0
C0C0
C0E0
C070
C038
C01C
C00E
C00F
C007
ENDCHAR

STARTCHAR L
ENCODING 76
SWIDTH 462 0
DWIDTH 15 0
BBX 11 25 3 0
BITMAP
C000
C000
C000
C000
C000
C000
C000
C000
C000
C000
C000
C000
C000
C000
C000
C000
C000
C000
C000
C000
C000
C000
C000
FFE0
FFE0
ENDCHAR

STARTCHAR M
ENCODING 77
SWIDTH 919 0
DWIDTH 30 0
BBX 24 25 3 0
BITMAP
F0000F
F0000F
F8001F
D8001B
D8001B
CC0033
CC0033
CE0073
C60063
C60063
C300C3
C300C3
C381C3
C18183
C18183
C0C303
C0C303
C0E703
C06603
C06603
C03C03
C03C03
C01803
C01803
C01803
ENDCHAR

STARTCHAR N
ENCODING 78
SWIDTH 740 0
DWIDTH 24 0
BBX 18 25 3 0
BITMAP
C000C0
E000C0
F000C0
F000C0
F800C0
DC00C0
CE00C0
C600C0
C300C0
C380C0
C180C0
C0C0C0
C0E0C0
C060C0
C030C0
C038C0
C018C0
C01CC0
C00EC0
C006C0
C007C0
C003C0
C001C0
C001C0
C000C0
ENDCHAR

STARTCHAR O
ENCODING 79
SWIDTH 869 0
DWIDTH 28 0
BBX 24 25 2 0
BITMAP
00FF00
03FFC0
0F81E0
1E0078
38001C
30000C
70000E
600006
E00007
C00003
C00003
C00003
C00003
C00003
C00003
C00003
E00007
600006
70000E
30000C
38003C
1E0078
0F81F0
03FFC0
00FF00
ENDCHAR

STARTCHAR P
ENCODING 80
SWIDTH 592 0
DWIDTH 19 0
BBX 15 25 3 0
BITMAP
FFC0
FFF0
C078
C01C
C00C
C00E
C006
C006
C006
C00E
C00C
C01C
C078
FFF0
FFC0
C000
C000
C000
C000
C000
C000
C000
C000
C000
C000
ENDCHAR

STARTCHAR Q
ENCODING 81
SWIDTH 871 0
DWIDTH 28 0
BBX 25 25 2 0
BITMAP
00FF8000
03FFE000
0780F000
1E003C00
38000E00
30000600
70000700
60000300
E0000380
C0000180
C0000180
C0000180
C0000180
C0000180
C0000180
C3F00180
EFFE0380
7C0F0300
7003C700
3800EE00
3C007C00
1E003800
0780FE00
03FFE780
00FF8380
ENDCHAR

STARTCHAR R
ENCODING 82
SWIDTH 607 0
DWIDTH 20 0
BBX 15 25 3 0
BITMAP
FFC0
FFF0
C038
C01C
C00C
C00E
C006
C006
C006
C006
C00E
C00C
C01C
C0F8
C7E0
C300
C380
C1C0
C0C0
C0E0
C070
C030
C038
C01C
C01C
ENDCHAR

STARTCHAR S
ENCODING 83
SWIDTH 498 0
DWIDTH 16 0
BBX 14 25 1 0
BITMAP
0FC0
1FF0
3830
3018
6018
6018
6000
6000
7000
3C00
1F00
07C0
01F0
0078
0018
001C
000C
000C
C00C
C00C
E01C
6018
7878
3FF0
0FC0
ENDCHAR

STARTCHAR T
ENCODING 84
SWIDTH 426 0
DWIDTH 14 0
BBX 14 25 0 0
BITMAP
FFFC
FFFC
0300
0300
0300
0300
0300
0300
0300
0300
0300
0300
0300
0300
0300
0300
0300
0300
0300
0300
0300
0300
0300
0300
0300
ENDCHAR

STARTCHAR U
ENCODING 85
SWIDTH 655 0
DWIDTH 21 0
BBX 15 25 3 0
BITMAP
C006
C006
C006
C006
C006
C006
C006
C006
C006
C006
C006
C006
C006
C006
C006
C006
C006
C006
C006
E00E
600C
701C
3C78
1FF0
07C0
ENDCHAR

STARTCHAR V
ENCODING 86
SWIDTH 702 0
DWIDTH 23 0
BBX 22 25 0 0
BITMAP
E0001C
600018
600018
300030
300030
380070
180060
180060
1C00E0
0C00C0
0C00C0
060180
060180
070380
030300
030300
038700
018600
018600
00CC00
00CC00
00FC00
007800
003000
003000
ENDCHAR

STARTCHAR W
ENCODING 87
SWIDTH 960 0
DWIDTH 31 0
BBX 29 25 1 0
BITMAP
C0060018
C0060018
E00F0038
600F0030
600F0030
60198070
70198060
30198060
301980E0
301980E0
3830C0C0
1830C0C0
1830C1C0
1830C180
1C30C180
0C606180
0C606380
0C606300
0C606300
06C03700
06C03600
06C03600
07C03E00
03801C00
03801C00
ENDCHAR

STARTCHAR X
ENCODING 88
SWIDTH 609 0
DWIDTH 20 0
BBX 17 25 1 0
BITMAP
400180
E00380
600700
300600
380C00
1C1C00
0C1800
0E3000
067000
036000
03E000
01C000
01C000
01E000
03E000
037000
063800
0E1C00
0C1C00
1C0E00
180600
380700
300380
700180
600180
ENDCHAR

STARTCHAR Y
ENCODING 89
SWIDTH 592 0
DWIDTH 19 0
BBX 17 25 1 0
BITMAP
C00180
C00380
E00300
600700
700600
300E00
300C00
381C00
181800
0C3800
0C3000
0E7000
066000
07E000
03C000
03C000
018000
018000
018000
018000
018000
018000
018000
018000
018000
ENDCHAR

STARTCHAR Z
ENCODING 90
SWIDTH 480 0
DWIDTH 16 0
BBX 15 25 0 0
BITMAP
FFFE
FFFE
000E
000C
001C
0038
0030
0070
0060
00E0
01C0
0180
0380
0300
0600
0600
0E00
1C00
1800
3800
7000
6000
E000
FFFE
FFFE
ENDCHAR

STARTCHAR bracketleft
ENCODING 91
SWIDTH 351 0
DWIDTH 12 0
BBX 6 27 4 -3
BITMAP
0C
1C
38
70
60
E0
C0
C0
C0
C0
C0
C0
C0
C0
C0
C0
C0
C0
C0
C0
C0
E0
60
70
38
3C
0C
ENDCHAR

STARTCHAR backslash
ENCODING 92
SWIDTH 605 0
DWIDTH 20 0
BBX 12 25 3 0
BITMAP
C000
E000
6000
7000
3000
3000
3800
1800
1C00
0C00
0C00
0E00
0600
0700
0300
0300
0380
0180
01C0
00C0
00C0
00E0
0060
0070
0030
ENDCHAR

STARTCHAR bracketright
ENCODING 93
SWIDTH 351 0
DWIDTH 12 0
BBX 6 27 1 -3
BITMAP
C0
E0
70
38
18
1C
0C
0C
0C
0C
0C
0C
0C
0C
0C
0C
0C
0C
0C
0C
0C
1C
18
38
70
E0
C0
ENDCHAR

STARTCHAR asciicircum
ENCODING 94
SWIDTH 672 0
DWIDTH 20 0
BBX 18 19 1 6
BITMAP
00C000
01E000
01E000
03F000
033000
033000
061800
061800
0E1C00
0C0C00
1C0E00
180600
180600
300300
300300
600380
600180
E001C0
C000C0
ENDCHAR

STARTCHAR underscore
ENCODING 95
SWIDTH 500 0
DWIDTH 16 0
BBX 16 2 0 -4
BITMAP
FFFF
FFFF
ENDCHAR

STARTCHAR quoteleft
ENCODING 96
SWIDTH 351 0
DWIDTH 12 0
BBX 5 6 3 19
BITMAP
E0
60
70
70
30
38
ENDCHAR

STARTCHAR a
ENCODING 97
SWIDTH 683 0
DWIDTH 22 0
BBX 18 19 2 0
BITMAP
03F0C0
0FFCC0
1E1EC0
3807C0
7003C0
6001C0
E001C0
C000C0
C000C0
C000C0
C000C0
C000C0
E001C0
6001C0
7003C0
3807C0
1E1EC0
0FFCC0
03F0C0
ENDCHAR

STARTCHAR b
ENCODING 98
SWIDTH 682 0
DWIDTH 22 0
BBX 18 25 2 0
BITMAP
C00000
C00000
C00000
C00000
C00000
C00000
C3F000
CFFC00
DE1E00
F80700
F00380
E00380
E001C0
C000C0
C000C0
C000C0
C000C0
C000C0
E001C0
E00180
F00380
F80700
DE1E00
CFFC00
C3F000
ENDCHAR

STARTCHAR c
ENCODING 99
SWIDTH 647 0
DWIDTH 21 0
BBX 17 19 2 0
BITMAP
03F800
0FFE00
1E0F00
380380
700180
600180
E00000
C00000
C00000
C00000
C00000
C00000
E00000
600180
700180
380380
1E0F00
0FFE00
03F800
ENDCHAR

STARTCHAR d
ENCODING 100
SWIDTH 685 0
DWIDTH 22 0
BBX 18 25 2 0
BITMAP
0000C0
0000C0
0000C0
0000C0
0000C0
0000C0
03F0C0
0FFCC0
1E1EC0
3807C0
7003C0
6001C0
E001C0
C000C0
C000C0
C000C0
C000C0
C000C0
C001C0
E001C0
6003C0
7007C0
3C1EC0
1FFCC0
07F0C0
ENDCHAR

STARTCHAR e
ENCODING 101
SWIDTH 650 0
DWIDTH 21 0
BBX 17 19 2 0
BITMAP
07F000
1FFC00
3C1E00
300600
600300
600380
C00180
C00180
C00180
FFFF80
FFFF80
C00000
C00000
E00180
600380
700700
3C1E00
1FFC00
07F000
ENDCHAR

STARTCHAR f
ENCODING 102
SWIDTH 314 0
DWIDTH 10 0
BBX 10 25 0 0
BITMAP
03C0
0FC0
0C00
1800
1800
1800
FFC0
FFC0
1800
1800
1800
1800
1800
1800
1800
1800
1800
1800
1800
1800
1800
1800
1800
1800
1800
ENDCHAR

STARTCHAR g
ENCODING 103
SWIDTH 673 0
DWIDTH 22 0
BBX 17 26 2 -7
BITMAP
07E180
1FF980
3C3D80
700F80
600780
E00380
E00380
C00180
C00180
C00180
C00180
C00180
E00380
E00380
600780
700F80
3C3D80
1FF980
03E180
000180
E00380
E00300
700700
3C1E00
1FFC00
07F000
ENDCHAR

STARTCHAR h
ENCODING 104
SWIDTH 610 0
DWIDTH 20 0
BBX 15 25 3 0
BITMAP
C000
C000
C000
C000
C000
C000
C7E0
DFF8
FC3C
F00C
E00E
E006
C006
C006
C006
C006
C006
C006
C006
C006
C006
C006
C006
C006
C006
ENDCHAR

STARTCHAR i
ENCODING 105
SWIDTH 200 0
DWIDTH 7 0
BBX 2 25 2 0
BITMAP
C0
C0
C0
C0
00
00
C0
C0
C0
C0
C0
C0
C0
C0
C0
C0
C0
C0
C0
C0
C0
C0
C0
C0
C0
ENDCHAR

STARTCHAR j
ENCODING 106
SWIDTH 203 0
DWIDTH 7 0
BBX 6 31 -2 -6
BITMAP
0C
0C
0C
0C
00
00
0C
0C
0C
0C
0C
0C
0C
0C
0C
0C
0C
0C
0C
0C
0C
0C
0C
0C
0C
0C
0C
0C
1C
F8
E0
ENDCHAR

STARTCHAR k
ENCODING 107
SWIDTH 502 0
DWIDTH 16 0
BBX 14 25 2 0
BITMAP
C000
C000
C000
C000
C000
C000
C01C
C038
C070
C0E0
C0C0
C180
C300
C700
C600
CE00
DF00
FB80
F180
E0C0
C0E0
C070
C030
C038
C01C
ENDCHAR

STARTCHAR l
ENCODING 108
SWIDTH 200 0
DWIDTH 7 0
BBX 2 25 2 0
BITMAP
C0
C0
C0
C0
C0
C0
C0
C0
C0
C0
C0
C0
C0
C0
C0
C0
C0
C0
C0
C0
C0
C0
C0
C0
C0
ENDCHAR

STARTCHAR m
ENCODING 109
SWIDTH 938 0
DWIDTH 30 0
BBX 26 19 2 0
BITMAP
C7C07C00
DFF1FF00
FC3BC380
F01F0180
E01E01C0
E00C00C0
C00C00C0
C00C00C0
C00C00C0
C00C00C0
C00C00C0
C00C00C0
C00C00C0
C00C00C0
C00C00C0
C00C00C0
C00C00C0
C00C00C0
C00C00C0
ENDCHAR

STARTCHAR n
ENCODING 110
SWIDTH 610 0
DWIDTH 20 0
BBX 15 19 3 0
BITMAP
C3C0
CFF0
DC38
F01C
E00C
C00E
C006
C006
C006
C006
C006
C006
C006
C006
C006
C006
C006
C006
C006
ENDCHAR

STARTCHAR o
ENCODING 111
SWIDTH 655 0
DWIDTH 21 0
BBX 17 19 2 0
BITMAP
03E000
0FF800
3E3E00
380E00
700700
600300
E00380
C00180
C00180
C00180
C00180
C00180
E00380
600300
700700
380E00
3E3E00
0FF800
03E000
ENDCHAR

STARTCHAR p
ENCODING 112
SWIDTH 682 0
DWIDTH 22 0
BBX 18 25 2 -6
BITMAP
C3F000
CFFC00
DE1E00
F80700
F00380
E00180
E001C0
C000C0
C000C0
C000C0
C000C0
C000C0
E001C0
E00180
F00380
F80700
DC1E00
CFFC00
C3F000
C00000
C00000
C00000
C00000
C00000
C00000
ENDCHAR

STARTCHAR q
ENCODING 113
SWIDTH 682 0
DWIDTH 22 0
BBX 18 25 2 -6
BITMAP
03F0C0
0FFCC0
1E1EC0
3807C0
7003C0
6001C0
E001C0
C000C0
C000C0
C000C0
C000C0
C000C0
E001C0
6001C0
7003C0
3807C0
1E1EC0
0FFCC0
03F0C0
0000C0
0000C0
0000C0
0000C0
0000C0
0000C0
ENDCHAR

STARTCHAR r
ENCODING 114
SWIDTH 301 0
DWIDTH 10 0
BBX 6 19 3 0
BITMAP
CC
DC
FC
F0
E0
C0
C0
C0
C0
C0
C0
C0
C0
C0
C0
C0
C0
C0
C0
ENDCHAR

STARTCHAR s
ENCODING 115
SWIDTH 388 0
DWIDTH 13 0
BBX 10 19 2 0
BITMAP
3E00
7F00
E380
C180
C180
C000
E000
7800
3E00
0F00
0380
0180
01C0
C0C0
C0C0
C0C0
E180
7F80
3E00
ENDCHAR

STARTCHAR t
ENCODING 116
SWIDTH 339 0
DWIDTH 11 0
BBX 9 25 1 0
BITMAP
1800
1800
1800
1800
1800
1800
FF80
FF80
1800
1800
1800
1800
1800
1800
1800
1800
1800
1800
1800
1800
1800
1800
1800
1800
1800
ENDCHAR

STARTCHAR u
ENCODING 117
SWIDTH 608 0
DWIDTH 20 0
BBX 15 19 2 0
BITMAP
C006
C006
C006
C006
C006
C006
C006
C006
C006
C006
C006
C006
C006
C006
E00E
601E
787E
3FF6
0FC6
ENDCHAR

STARTCHAR v
ENCODING 118
SWIDTH 554 0
DWIDTH 18 0
BBX 18 19 0 0
BITMAP
E001C0
600180
700380
300300
300300
380700
180600
180600
1C0E00
0C0C00
0E1C00
061800
061800
073800
033000
03E000
01E000
00C000
00C000
ENDCHAR

STARTCHAR w
ENCODING 119
SWIDTH 831 0
DWIDTH 27 0
BBX 26 19 0 0
BITMAP
E00001C0
60000180
600C0180
600C0180
301E0300
301E0300
381F0300
18330700
18330600
18330600
0C318E00
0C618C00
0E618C00
0661D800
0740D800
03C0F000
03C0F000
01806000
01806000
ENDCHAR

STARTCHAR x
ENCODING 120
SWIDTH 480 0
DWIDTH 16 0
BBX 13 19 1 0
BITMAP
C018
E038
6030
7070
3060
18C0
1DC0
0F80
0F00
0700
0F80
0D80
18C0
38E0
3060
7070
6030
C038
C018
ENDCHAR

STARTCHAR y
ENCODING 121
SWIDTH 536 0
DWIDTH 17 0
BBX 17 25 0 -6
BITMAP
E00380
600300
700700
700600
300E00
380E00
381C00
181C00
1C1800
0C3800
0C3000
0E3000
067000
076000
036000
03C000
03C000
01C000
018000
038000
030000
070000
060000
0E0000
1C0000
ENDCHAR

STARTCHAR z
ENCODING 122
SWIDTH 425 0
DWIDTH 14 0
BBX 13 19 0 0
BITMAP
7FF8
7FF8
0038
0070
0060
00E0
00C0
0180
0300
0700
0600
0C00
1C00
1800
3000
7000
E000
FFF8
FFF8
ENDCHAR

STARTCHAR braceleft
ENCODING 123
SWIDTH 351 0
DWIDTH 12 0
BBX 7 29 2 -4
BITMAP
0E
1C
18
18
18
18
18
18
18
18
18
18
18
30
E0
30
18
18
18
18
18
18
18
18
18
18
18
1C
0E
ENDCHAR

STARTCHAR bar
ENCODING 124
SWIDTH 672 0
DWIDTH 22 0
BBX 2 25 10 0
BITMAP
C0
C0
C0
C0
C0
C0
C0
C0
C0
C0
C0
C0
C0
C0
C0
C0
C0
C0
C0
C0
C0
C0
C0
C0
C0
ENDCHAR

STARTCHAR braceright
ENCODING 125
SWIDTH 351 0
DWIDTH 12 0
BBX 7 29 3 -4
BITMAP
E0
70
30
30
30
30
30
30
30
30
30
30
30
18
0E
18
30
30
30
30
30
30
30
30
30
30
30
70
E0
ENDCHAR

STARTCHAR asciitilde
ENCODING 126
SWIDTH 606 0
DWIDTH 20 0
BBX 16 4 2 8
BITMAP
1E03
7FC7
E3FE
C078
ENDCHAR

STARTCHAR exclamdown
ENCODING 161
SWIDTH 295 0
DWIDTH 10 0
BBX 2 25 4 -6
BITMAP
C0
C0
C0
C0
00
00
00
C0
C0
C0
C0
C0
C0
C0
C0
C0
C0
C0
C0
C0
C0
C0
C0
C0
C0
ENDCHAR

STARTCHAR cent
ENCODING 162
SWIDTH 554 0
DWIDTH 18 0
BBX 13 21 2 2
BITMAP
0300
0300
0300
0FC0
3FF0
7038
6018
E018
C000
C000
C000
C000
C000
E000
6018
7038
3FF0
0FC0
0300
0300
0300
ENDCHAR

STARTCHAR sterling
ENCODING 163
SWIDTH 554 0
DWIDTH 18 0
BBX 19 25 0 0
BITMAP
01F800
07FE00
0F0F00
1C0300
180380
380180
300180
300000
300000
380000
1C0000
FFFE00
FFFE00
070000
038000
018000
01C060
00C060
00C060
00C060
01C060
0380C0
0703C0
7FFF80
7FFE00
ENDCHAR

STARTCHAR currency
ENCODING 164
SWIDTH 554 0
DWIDTH 18 0
BBX 16 17 1 2
BITMAP
43C2
EFF7
7E7E
381C
700E
6006
E007
C003
C003
C003
E007
6006
700E
381C
7E7E
EFF7
43C2
ENDCHAR

STARTCHAR yen
ENCODING 165
SWIDTH 554 0
DWIDTH 18 0
BBX 16 25 1 0
BITMAP
C003
E007
6006
6006
300C
300C
381C
1818
1C38
0C30
7C3F
7E7F
0660
03C0
03C0
7FFF
7FFF
0180
0180
0180
0180
0180
0180
0180
0180
ENDCHAR

STARTCHAR brokenbar
ENCODING 166
SWIDTH 672 0
DWIDTH 22 0
BBX 2 25 10 0
BITMAP
C0
C0
C0
C0
C0
C0
C0
C0
C0
C0
00
00
00
00
00
C0
C0
C0
C0
C0
C0
C0
C0
C0
C0
ENDCHAR

STARTCHAR section
ENCODING 167
SWIDTH 615 0
DWIDTH 20 0
BBX 15 29 2 -4
BITMAP
07E0
1FF0
1838
3018
3018
3000
3800
1C00
1E00
3F80
73E0
C0F8
C03C
C00C
6006
7806
3E06
0F8C
03FC
00F8
0038
001C
600C
600C
700C
300C
3818
1FF8
07E0
ENDCHAR

STARTCHAR dieresis
ENCODING 168
SWIDTH 369 0
DWIDTH 12 0
BBX 6 4 3 21
BITMAP
CC
CC
CC
CC
ENDCHAR

STARTCHAR copyright
ENCODING 169
SWIDTH 747 0
DWIDTH 24 0
BBX 24 25 0 0
BITMAP
007E00
01FF80
0781E0
0E0070
180018
30000C
303E0C
60FF06
61C186
C180C3
C300C3
C30003
C30003
C30003
C30003
C300C3
6180C6
61C186
30FF0C
303E0C
180018
0E0070
0781E0
01FF80
007E00
ENDCHAR

STARTCHAR ordfeminine
ENCODING 170
SWIDTH 369 0
DWIDTH 12 0
BBX 10 14 1 11
BITMAP
1E40
7FC0
E1C0
C0C0
C0C0
C0C0
C0C0
E1C0
7FC0
1E40
0000
0000
FFC0
FFC0
ENDCHAR

STARTCHAR guillemotleft
ENCODING 171
SWIDTH 425 0
DWIDTH 14 0
BBX 11 13 1 4
BITMAP
1860
38E0
30C0
71C0
6180
E380
C300
E380
6180
71C0
30C0
38E0
1860
ENDCHAR

STARTCHAR logicalnot
ENCODING 172
SWIDTH 606 0
DWIDTH 20 0
BBX 16 8 1 5
BITMAP
FFFF
FFFF
0003
0003
0003
0003
0003
0003
ENDCHAR

STARTCHAR hyphen
ENCODING 173
SWIDTH 332 0
DWIDTH 11 0
BBX 9 2 1 9
BITMAP
FF80
FF80
ENDCHAR

STARTCHAR registered
ENCODING 174
SWIDTH 747 0
DWIDTH 25 0
BBX 24 26 0 0
BITMAP
007E00
01FF80
0781E0
0E0070
180018
30000C
30000C
61FF06
618186
C180C3
C180C3
C180C3
C18183
C1FF03
C18C03
C18603
C18603
618306
618386
31818C
30000C
180018
0E0070
0781E0
01FF80
007E00
ENDCHAR

STARTCHAR macron
ENCODING 175
SWIDTH 485 0
DWIDTH 16 0
BBX 11 2 2 21
BITMAP
FFE0
FFE0
ENDCHAR

STARTCHAR degree
ENCODING 176
SWIDTH 400 0
DWIDTH 13 0
BBX 10 10 1 15
BITMAP
1E00
7F80
6180
C0C0
C0C0
C0C0
C0C0
6180
7F80
1E00
ENDCHAR

STARTCHAR plusminus
ENCODING 177
SWIDTH 606 0
DWIDTH 20 0
BBX 16 18 2 0
BITMAP
0180
0180
0180
0180
0180
0180
FFFF
FFFF
0180
0180
0180
0180
0180
0180
0000
0000
FFFF
FFFF
ENDCHAR

STARTCHAR twosuperior
ENCODING 178
SWIDTH 332 0
DWIDTH 11 0
BBX 10 15 0 10
BITMAP
1F00
7F80
61C0
C0C0
C0C0
01C0
0180
0300
0700
0E00
1C00
3800
7000
FFC0
FFC0
ENDCHAR

STARTCHAR threesuperior
ENCODING 179
SWIDTH 332 0
DWIDTH 11 0
BBX 10 15 0 10
BITMAP
1E00
3F00
6180
6180
0180
0300
1F00
1F80
01C0
00C0
C0C0
C0C0
6180
7F80
1E00
ENDCHAR

STARTCHAR acute
ENCODING 180
SWIDTH 375 0
DWIDTH 12 0
BBX 7 6 2 20
BITMAP
04
0E
3E
F8
E0
40
ENDCHAR

STARTCHAR mu
ENCODING 181
SWIDTH 608 0
DWIDTH 20 0
BBX 15 25 2 -6
BITMAP
C006
C006
C006
C006
C006
C006
C006
C006
C006
C006
C006
C006
C006
C006
E00E
E01E
F87E
FFF6
CFC6
C000
C000
C000
C000
C000
C000
ENDCHAR

STARTCHAR paragraph
ENCODING 182
SWIDTH 564 0
DWIDTH 18 0
BBX 14 29 1 -4
BITMAP
0FFC
3FFC
7F0C
7F0C
FF0C
FF0C
FF0C
FF0C
FF0C
7F0C
7F0C
3F0C
0F0C
030C
030C
030C
030C
030C
030C
030C
030C
030C
030C
030C
030C
030C
030C
030C
030C
ENDCHAR

STARTCHAR periodcentered
ENCODING 183
SWIDTH 277 0
DWIDTH 9 0
BBX 2 4 3 8
BITMAP
C0
C0
C0
C0
ENDCHAR

STARTCHAR cedilla
ENCODING 184
SWIDTH 324 0
DWIDTH 11 0
BBX 5 7 3 -7
BITMAP
40
40
F0
18
08
D8
F0
ENDCHAR

STARTCHAR onesuperior
ENCODING 185
SWIDTH 332 0
DWIDTH 11 0
BBX 4 15 4 10
BITMAP
F0
F0
30
30
30
30
30
30
30
30
30
30
30
30
30
ENDCHAR

STARTCHAR ordmasculine
ENCODING 186
SWIDTH 369 0
DWIDTH 12 0
BBX 10 14 1 11
BITMAP
1E00
7F80
6180
C0C0
C0C0
C0C0
C0C0
6180
7F80
1E00
0000
0000
FFC0
FFC0
ENDCHAR

STARTCHAR guillemotright
ENCODING 187
SWIDTH 425 0
DWIDTH 14 0
BBX 11 13 1 4
BITMAP
C300
E380
6180
71C0
30C0
38E0
1860
38E0
30C0
71C0
6180
E380
C300
ENDCHAR

STARTCHAR onequarter
ENCODING 188
SWIDTH 831 0
DWIDTH 28 0
BBX 21 25 4 0
BITMAP
F00600
F00600
300C00
300C00
300C00
301800
301800
303000
303000
303000
306030
306070
30C0F0
30C1B0
3181B0
018330
018630
030630
030C30
061830
061FF8
0C1FF8
0C0030
180030
180030
ENDCHAR

STARTCHAR onehalf
ENCODING 189
SWIDTH 831 0
DWIDTH 28 0
BBX 23 25 3 0
BITMAP
F00300
F00600
300600
300E00
300C00
300C00
301800
301800
303000
303000
3070F0
3063FC
30E30E
30C606
30C606
018006
01800C
03801C
030038
070070
0600E0
0601C0
0C0380
0C07FE
1C07FE
ENDCHAR

STARTCHAR threequarters
ENCODING 190
SWIDTH 831 0
DWIDTH 28 0
BBX 25 25 0 0
BITMAP
1E006000
3F006000
61806000
6180C000
0180C000
03018000
1E018000
1F838000
01C30000
00C30000
C0C60300
C0C60700
61CC0F00
7F8C1B00
1E1C1B00
00183300
00186300
00306300
0030C300
00618300
0061FF80
00E1FF80
00C00300
00C00300
01800300
ENDCHAR

STARTCHAR questiondown
ENCODING 191
SWIDTH 591 0
DWIDTH 19 0
BBX 15 26 2 -7
BITMAP
0300
0300
0300
0300
0000
0000
0300
0300
0300
0700
0600
0E00
1C00
3800
7000
6000
E000
C000
C006
C006
C006
E00C
601C
7838
3FF0
0FC0
ENDCHAR

STARTCHAR Agrave
ENCODING 192
SWIDTH 740 0
DWIDTH 24 0
BBX 21 31 1 0
BITMAP
020000
070000
07C000
01F000
006000
000000
007000
007000
00F800
00D800
00D800
018C00
018C00
038E00
030600
030600
060700
060300
0E0380
0C0180
0C0180
1FFFC0
1FFFC0
3800E0
300060
700070
600030
600030
E00038
C00018
C00018
ENDCHAR

STARTCHAR Aacute
ENCODING 193
SWIDTH 740 0
DWIDTH 24 0
BBX 21 31 1 0
BITMAP
000200
000700
001F00
007C00
003000
000000
007000
007000
00F800
00D800
00D800
018C00
018C00
038E00
030600
030600
060700
060300
0E0380
0C0180
0C0180
1FFFC0
1FFFC0
3800E0
300060
700070
600030
600030
E00038
C00018
C00018
ENDCHAR

STARTCHAR Acircumflex
ENCODING 194
SWIDTH 740 0
DWIDTH 24 0
BBX 21 31 1 0
BITMAP
007000
00F800
01DC00
038E00
000000
000000
007000
007000
00F800
00D800
00D800
018C00
018C00
038E00
030600
030600
060700
060300
0E0380
0C0180
0C0180
1FFFC0
1FFFC0
3800E0
300060
700070
600030
600030
E00038
C00018
C00018
ENDCHAR

STARTCHAR Atilde
ENCODING 195
SWIDTH 740 0
DWIDTH 24 0
BBX 21 30 1 0
BITMAP
01E400
03FE00
013C00
000000
000000
007000
007000
00F800
00D800
00D800
018C00
018C00
038E00
030600
030600
060700
060300
0E0380
0C0180
0C0180
1FFFC0
1FFFC0
3800E0
300060
700070
600030
600030
E00038
C00018
C00018
ENDCHAR

STARTCHAR Adieresis
ENCODING 196
SWIDTH 740 0
DWIDTH 24 0
BBX 21 31 1 0
BITMAP
018C00
018C00
018C00
018C00
000000
000000
007000
007000
00F800
00D800
00D800
018C00
018C00
038E00
030600
030600
060700
060300
0E0380
0C0180
0C0180
1FFFC0
1FFFC0
3800E0
300060
700070
600030
600030
E00038
C00018
C00018
ENDCHAR

STARTCHAR Aring
ENCODING 197
SWIDTH 740 0
DWIDTH 24 0
BBX 21 31 1 0
BITMAP
00F000
019800
010800
019800
00F000
000000
007000
007000
00F800
00D800
00D800
018C00
018C00
038E00
030600
030600
060700
060300
0E0380
0C0180
0C0180
1FFFC0
1FFFC0
3800E0
300060
700070
600030
600030
E00038
C00018
C00018
ENDCHAR

STARTCHAR AE
ENCODING 198
SWIDTH 992 0
DWIDTH 32 0
BBX 29 25 1 0
BITMAP
0000FFF8
0001FFF8
0003E000
00036000
00076000
000E6000
000C6000
001C6000
00386000
00306000
00706000
00E06000
00C07FF8
01C07FF8
03806000
03FFE000
07FFE000
0E006000
1C006000
18006000
38006000
70006000
60006000
E0007FF8
C0007FF8
ENDCHAR

STARTCHAR Ccedilla
ENCODING 199
SWIDTH 813 0
DWIDTH 26 0
BBX 22 31 2 -6
BITMAP
00FF00
03FFC0
0F81F0
1E0078
38001C
30001C
700000
600000
E00000
C00000
C00000
C00000
C00000
C00000
C00000
C00000
E00000
600000
700000
30001C
38001C
1E0078
0F81F0
03FFC0
00FF00
001000
003C00
000600
000200
003600
003C00
ENDCHAR

STARTCHAR Egrave
ENCODING 200
SWIDTH 536 0
DWIDTH 17 0
BBX 12 31 3 0
BITMAP
2000
7000
7C00
1F00
0600
0000
FFF0
FFF0
C000
C000
C000
C000
C000
C000
C000
C000
C000
FFF0
FFF0
C000
C000
C000
C000
C000
C000
C000
C000
C000
C000
FFF0
FFF0
ENDCHAR

STARTCHAR Eacute
ENCODING 201
SWIDTH 536 0
DWIDTH 17 0
BBX 12 31 3 0
BITMAP
0040
00E0
03E0
0F80
0600
0000
FFF0
FFF0
C000
C000
C000
C000
C000
C000
C000
C000
C000
FFF0
FFF0
C000
C000
C000
C000
C000
C000
C000
C000
C000
C000
FFF0
FFF0
ENDCHAR

STARTCHAR Ecircumflex
ENCODING 202
SWIDTH 536 0
DWIDTH 17 0
BBX 12 31 3 0
BITMAP
0700
0F80
1DC0
38E0
0000
0000
FFF0
FFF0
C000
C000
C000
C000
C000
C000
C000
C000
C000
FFF0
FFF0
C000
C000
C000
C000
C000
C000
C000
C000
C000
C000
FFF0
FFF0
ENDCHAR

STARTCHAR Edieresis
ENCODING 203
SWIDTH 536 0
DWIDTH 17 0
BBX 12 31 3 0
BITMAP
1980
1980
1980
1980
0000
0000
FFF0
FFF0
C000
C000
C000
C000
C000
C000
C000
C000
C000
FFF0
FFF0
C000
C000
C000
C000
C000
C000
C000
C000
C000
C000
FFF0
FFF0
ENDCHAR

STARTCHAR Igrave
ENCODING 204
SWIDTH 226 0
DWIDTH 7 0
BBX 7 31 1 0
BITMAP
40
E0
F8
3E
0C
00
30
30
30
30
30
30
30
30
30
30
30
30
30
30
30
30
30
30
30
30
30
30
30
30
30
ENDCHAR

STARTCHAR Iacute
ENCODING 205
SWIDTH 226 0
DWIDTH 7 0
BBX 7 31 2 0
BITMAP
04
0E
3E
F8
60
00
60
60
60
60
60
60
60
60
60
60
60
60
60
60
60
60
60
60
60
60
60
60
60
60
60
ENDCHAR

STARTCHAR Icircumflex
ENCODING 206
SWIDTH 226 0
DWIDTH 7 0
BBX 9 31 0 0
BITMAP
1C00
3E00
7700
E380
0000
0000
1800
1800
1800
1800
1800
1800
1800
1800
1800
1800
1800
1800
1800
1800
1800
1800
1800
1800
1800
1800
1800
1800
1800
1800
1800
ENDCHAR

STARTCHAR Idieresis
ENCODING 207
SWIDTH 226 0
DWIDTH 7 0
BBX 6 31 1 0
BITMAP
CC
CC
CC
CC
00
00
30
30
30
30
30
30
30
30
30
30
30
30
30
30
30
30
30
30
30
30
30
30
30
30
30
ENDCHAR

STARTCHAR Eth
ENCODING 208
SWIDTH 790 0
DWIDTH 24 0
BBX 22 25 0 0
BITMAP
1FFC00
1FFF80
1803C0
1800E0
180070
180030
180038
180018
18001C
18000C
18000C
FFC00C
FFC00C
18000C
18000C
18000C
18001C
180018
180038
180030
180070
1801E0
1807C0
1FFF00
1FFC00
ENDCHAR

STARTCHAR Ntilde
ENCODING 209
SWIDTH 740 0
DWIDTH 24 0
BBX 18 30 3 0
BITMAP
03C800
07FC00
027800
000000
000000
E000C0
E000C0
F000C0
F800C0
D800C0
CC00C0
CE00C0
C700C0
C300C0
C380C0
C180C0
C0C0C0
C0E0C0
C060C0
C070C0
C038C0
C018C0
C01CC0
C00CC0
C006C0
C007C0
C003C0
C003C0
C001C0
C001C0
ENDCHAR

STARTCHAR Ograve
ENCODING 210
SWIDTH 869 0
DWIDTH 28 0
BBX 24 32 2 0
BITMAP
008000
01C000
01F000
007C00
001C00
000800
000000
00FF00
03FFC0
0F81E0
1E0078
38001C
30000C
70000E
600006
E00007
C00003
C00003
C00003
C00003
C00003
C00003
C00003
E00007
600006
70000E
30000C
38003C
1E0078
0F81F0
03FFC0
00FF00
ENDCHAR

STARTCHAR Oacute
ENCODING 211
SWIDTH 869 0
DWIDTH 28 0
BBX 24 32 2 0
BITMAP
000100
000380
000F80
001E00
003800
001000
000000
00FF00
03FFC0
0F81E0
1E0078
38001C
30000C
70000E
600006
E00007
C00003
C00003
C00003
C00003
C00003
C00003
C00003
E00007
600006
70000E
30000C
38003C
1E0078
0F81F0
03FFC0
00FF00
ENDCHAR

STARTCHAR Ocircumflex
ENCODING 212
SWIDTH 869 0
DWIDTH 28 0
BBX 24 31 2 0
BITMAP
001C00
003E00
007700
00E380
000000
000000
00FF00
03FFC0
0F81E0
1E0078
38001C
30000C
70000E
600006
E00007
C00003
C00003
C00003
C00003
C00003
C00003
C00003
E00007
600006
70000E
30000C
38003C
1E0078
0F81F0
03FFC0
00FF00
ENDCHAR

STARTCHAR Otilde
ENCODING 213
SWIDTH 869 0
DWIDTH 28 0
BBX 24 30 2 0
BITMAP
007900
00FF80
004F00
000000
000000
00FF00
03FFC0
0F81E0
1E0078
38001C
30000C
70000E
600006
E00007
C00003
C00003
C00003
C00003
C00003
C00003
C00003
E00007
600006
70000E
30000C
38003C
1E0078
0F81F0
03FFC0
00FF00
ENDCHAR

STARTCHAR Odieresis
ENCODING 214
SWIDTH 869 0
DWIDTH 28 0
BBX 24 31 2 0
BITMAP
006600
006600
006600
006600
000000
000000
00FF00
03FFC0
0F81E0
1E0078
38001C
30000C
70000E
600006
E00007
C00003
C00003
C00003
C00003
C00003
C00003
C00003
E00007
600006
70000E
30000C
38003C
1E0078
0F81F0
03FFC0
00FF00
ENDCHAR

STARTCHAR multiply
ENCODING 215
SWIDTH 606 0
DWIDTH 20 0
BBX 16 16 2 2
BITMAP
4002
E007
700E
381C
1C38
0E70
07E0
03C0
03C0
07E0
0E70
1C38
381C
700E
E007
4002
ENDCHAR

STARTCHAR Oslash
ENCODING 216
SWIDTH 868 0
DWIDTH 28 0
BBX 24 29 2 -2
BITMAP
000004
00000E
00FF1C
03FFF8
0F81F0
1E0078
3800F8
3001DC
7001CE
600386
E00707
C00603
C00E03
C01C03
C03803
C03803
C07003
C0E003
E0C007
61C006
73800E
3B001C
1F0038
0E0078
1F81E0
1FFFC0
38FF00
700000
200000
ENDCHAR

STARTCHAR Ugrave
ENCODING 217
SWIDTH 655 0
DWIDTH 21 0
BBX 15 32 3 0
BITMAP
0400
0E00
0F80
03C0
00E0
0040
0000
C006
C006
C006
C006
C006
C006
C006
C006
C006
C006
C006
C006
C006
C006
C006
C006
C006
C006
C006
E00E
600C
701C
3C78
1FF0
07C0
ENDCHAR

STARTCHAR Uacute
ENCODING 218
SWIDTH 655 0
DWIDTH 21 0
BBX 15 32 3 0
BITMAP
0020
0070
01F0
03C0
0700
0200
0000
C006
C006
C006
C006
C006
C006
C006
C006
C006
C006
C006
C006
C006
C006
C006
C006
C006
C006
C006
E00E
600C
701C
3C78
1FF0
07C0
ENDCHAR

STARTCHAR Ucircumflex
ENCODING 219
SWIDTH 655 0
DWIDTH 21 0
BBX 15 31 3 0
BITMAP
0380
07C0
0EE0
1C70
0000
0000
C006
C006
C006
C006
C006
C006
C006
C006
C006
C006
C006
C006
C006
C006
C006
C006
C006
C006
C006
E00E
600C
701C
3C78
1FF0
07C0
ENDCHAR

STARTCHAR Udieresis
ENCODING 220
SWIDTH 655 0
DWIDTH 21 0
BBX 15 31 3 0
BITMAP
0660
0660
0660
0660
0000
0000
C006
C006
C006
C006
C006
C006
C006
C006
C006
C006
C006
C006
C006
C006
C006
C006
C006
C006
C006
E00E
600C
701C
3C78
1FF0
07C0
ENDCHAR

STARTCHAR Yacute
ENCODING 221
SWIDTH 592 0
DWIDTH 19 0
BBX 17 32 1 0
BITMAP
001000
003800
00F800
01E000
038000
010000
000000
C00180
C00380
E00300
600700
700600
300E00
300C00
381C00
181800
0C3800
0C3000
0E7000
066000
07E000
03C000
03C000
018000
018000
018000
018000
018000
018000
018000
018000
018000
ENDCHAR

STARTCHAR Thorn
ENCODING 222
SWIDTH 592 0
DWIDTH 19 0
BBX 15 25 3 0
BITMAP
C000
C000
C000
C000
C000
FFC0
FFF0
C0F8
C01C
C00C
C00E
C006
C006
C006
C00E
C00C
C01C
C0F8
FFF0
FFC0
C000
C000
C000
C000
C000
ENDCHAR

STARTCHAR germandbls
ENCODING 223
SWIDTH 554 0
DWIDTH 18 0
BBX 15 26 2 -1
BITMAP
0F80
3FE0
78F0
6030
E038
C018
C018
C018
C038
C030
C070
C7E0
C7E0
C078
C03C
C00C
C00E
C006
C006
F006
F00E
D80C
DC3C
CFF8
C3E0
C000
ENDCHAR

STARTCHAR agrave
ENCODING 224
SWIDTH 683 0
DWIDTH 22 0
BBX 18 26 2 0
BITMAP
020000
070000
07C000
01E000
007000
002000
000000
03F0C0
0FFCC0
1E1EC0
3807C0
7003C0
6001C0
E001C0
C000C0
C000C0
C000C0
C000C0
C000C0
E001C0
6001C0
7003C0
3807C0
1E1EC0
0FFCC0
03F0C0
ENDCHAR

STARTCHAR aacute
ENCODING 225
SWIDTH 683 0
DWIDTH 22 0
BBX 18 26 2 0
BITMAP
000800
001C00
007C00
01F000
01C000
008000
000000
03F0C0
0FFCC0
1E1EC0
3807C0
7003C0
6001C0
E001C0
C000C0
C000C0
C000C0
C000C0
C000C0
E001C0
6001C0
7003C0
3807C0
1E1EC0
0FFCC0
03F0C0
ENDCHAR

STARTCHAR acircumflex
ENCODING 226
SWIDTH 683 0
DWIDTH 22 0
BBX 18 25 2 0
BITMAP
00E000
01F000
03B800
071C00
000000
000000
03F0C0
0FFCC0
1E1EC0
3807C0
7003C0
6001C0
E001C0
C000C0
C000C0
C000C0
C000C0
C000C0
E001C0
6001C0
7003C0
3807C0
1E1EC0
0FFCC0
03F0C0
ENDCHAR

STARTCHAR atilde
ENCODING 227
SWIDTH 683 0
DWIDTH 22 0
BBX 18 24 2 0
BITMAP
03C800
07FC00
027800
000000
000000
03F0C0
0FFCC0
1E1EC0
3807C0
7003C0
6001C0
E001C0
C000C0
C000C0
C000C0
C000C0
C000C0
E001C0
6001C0
7003C0
3807C0
1E1EC0
0FFCC0
03F0C0
ENDCHAR

STARTCHAR adieresis
ENCODING 228
SWIDTH 683 0
DWIDTH 22 0
BBX 18 25 2 0
BITMAP
033000
033000
033000
033000
000000
000000
03F0C0
0FFCC0
1E1EC0
3807C0
7003C0
6001C0
E001C0
C000C0
C000C0
C000C0
C000C0
C000C0
E001C0
6001C0
7003C0
3807C0
1E1EC0
0FFCC0
03F0C0
ENDCHAR

STARTCHAR aring
ENCODING 229
SWIDTH 683 0
DWIDTH 22 0
BBX 18 25 2 0
BITMAP
00F000
019800
010800
019800
00F000
000000
03F0C0
0FFCC0
1E1EC0
3807C0
7003C0
6001C0
E001C0
C000C0
C000C0
C000C0
C000C0
C000C0
E001C0
6001C0
7003C0
3807C0
1E1EC0
0FFCC0
03F0C0
ENDCHAR

STARTCHAR ae
ENCODING 230
SWIDTH 1157 0
DWIDTH 37 0
BBX 32 19 2 0
BITMAP
03F18FE0
0FFDBFF8
1E1DB83C
3807E00C
7003C006
6003C007
E0018003
C0018003
C0018003
C001FFFF
C001FFFF
C0018000
E0018000
6003C003
7003C007
3807E00E
1E0DB83C
0FFDBFF8
03F18FE0
ENDCHAR

STARTCHAR ccedilla
ENCODING 231
SWIDTH 647 0
DWIDTH 21 0
BBX 17 26 2 -7
BITMAP
03F800
0FFE00
1E0F00
380380
700180
600180
E00000
C00000
C00000
C00000
C00000
C00000
E00000
600180
700180
380380
1E0F00
0FFE00
03F800
008000
008000
01E000
003000
001000
01B000
01E000
ENDCHAR

STARTCHAR egrave
ENCODING 232
SWIDTH 650 0
DWIDTH 21 0
BBX 17 26 2 0
BITMAP
020000
070000
07C000
01E000
007000
002000
000000
07F000
1FFC00
3C1E00
300600
600300
600380
C00180
C00180
C00180
FFFF80
FFFF80
C00000
C00000
E00180
600380
700700
3C1E00
1FFC00
07F000
ENDCHAR

STARTCHAR eacute
ENCODING 233
SWIDTH 650 0
DWIDTH 21 0
BBX 17 26 2 0
BITMAP
001000
003800
00F800
03E000
038000
010000
000000
07F000
1FFC00
3C1E00
300600
600300
600380
C00180
C00180
C00180
FFFF80
FFFF80
C00000
C00000
E00180
600380
700700
3C1E00
1FFC00
07F000
ENDCHAR

STARTCHAR ecircumflex
ENCODING 234
SWIDTH 650 0
DWIDTH 21 0
BBX 17 25 2 0
BITMAP
01C000
03E000
077000
0E3800
000000
000000
07F000
1FFC00
3C1E00
300600
600300
600380
C00180
C00180
C00180
FFFF80
FFFF80
C00000
C00000
E00180
600380
700700
3C1E00
1FFC00
07F000
ENDCHAR

STARTCHAR edieresis
ENCODING 235
SWIDTH 650 0
DWIDTH 21 0
BBX 17 25 2 0
BITMAP
033000
033000
033000
033000
000000
000000
07F000
1FFC00
3C1E00
300600
600300
600380
C00180
C00180
C00180
FFFF80
FFFF80
C00000
C00000
E00180
600380
700700
3C1E00
1FFC00
07F000
ENDCHAR

STARTCHAR igrave
ENCODING 236
SWIDTH 200 0
DWIDTH 7 0
BBX 7 26 0 0
BITMAP
40
E0
F8
3C
0E
04
00
30
30
30
30
30
30
30
30
30
30
30
30
30
30
30
30
30
30
30
ENDCHAR

STARTCHAR iacute
ENCODING 237
SWIDTH 200 0
DWIDTH 7 0
BBX 7 26 0 0
BITMAP
04
0E
3E
F8
E0
40
00
30
30
30
30
30
30
30
30
30
30
30
30
30
30
30
30
30
30
30
ENDCHAR

STARTCHAR icircumflex
ENCODING 238
SWIDTH 200 0
DWIDTH 7 0
BBX 9 25 -1 0
BITMAP
1C00
3E00
7700
E380
0000
0000
1800
1800
1800
1800
1800
1800
1800
1800
1800
1800
1800
1800
1800
1800
1800
1800
1800
1800
1800
ENDCHAR

STARTCHAR idieresis
ENCODING 239
SWIDTH 200 0
DWIDTH 7 0
BBX 6 25 0 0
BITMAP
CC
CC
CC
CC
00
00
30
30
30
30
30
30
30
30
30
30
30
30
30
30
30
30
30
30
30
ENDCHAR

STARTCHAR eth
ENCODING 240
SWIDTH 655 0
DWIDTH 22 0
BBX 17 26 2 0
BITMAP
0C1800
1F7800
03C000
0FE000
0C7000
001800
000C00
03CC00
0FF600
1E3F00
380F00
700700
600380
E00380
C00180
C00180
C00180
C00180
C00180
E00380
600300
700700
380E00
1E3E00
0FF800
03E000
ENDCHAR

STARTCHAR ntilde
ENCODING 241
SWIDTH 610 0
DWIDTH 20 0
BBX 15 24 3 0
BITMAP
0F20
1FF0
09E0
0000
0000
C3C0
CFF0
DC38
F01C
E00C
C00E
C006
C006
C006
C006
C006
C006
C006
C006
C006
C006
C006
C006
C006
ENDCHAR

STARTCHAR ograve
ENCODING 242
SWIDTH 655 0
DWIDTH 21 0
BBX 17 26 2 0
BITMAP
020000
070000
07C000
01E000
007000
002000
000000
03E000
0FF800
3E3E00
380E00
700700
600300
E00380
C00180
C00180
C00180
C00180
C00180
E00380
600300
700700
380E00
3E3E00
0FF800
03E000
ENDCHAR

STARTCHAR oacute
ENCODING 243
SWIDTH 655 0
DWIDTH 21 0
BBX 17 26 2 0
BITMAP
001000
003800
00F800
03E000
038000
010000
000000
03E000
0FF800
3E3E00
380E00
700700
600300
E00380
C00180
C00180
C00180
C00180
C00180
E00380
600300
700700
380E00
3E3E00
0FF800
03E000
ENDCHAR

STARTCHAR ocircumflex
ENCODING 244
SWIDTH 655 0
DWIDTH 21 0
BBX 17 25 2 0
BITMAP
01C000
03E000
077000
0E3800
000000
000000
03E000
0FF800
3E3E00
380E00
700700
600300
E00380
C00180
C00180
C00180
C00180
C00180
E00380
600300
700700
380E00
3E3E00
0FF800
03E000
ENDCHAR

STARTCHAR otilde
ENCODING 245
SWIDTH 655 0
DWIDTH 21 0
BBX 17 24 2 0
BITMAP
079000
0FF800
04F000
000000
000000
03E000
0FF800
3E3E00
380E00
700700
600300
E00380
C00180
C00180
C00180
C00180
C00180
E00380
600300
700700
380E00
3E3E00
0FF800
03E000
ENDCHAR

STARTCHAR odieresis
ENCODING 246
SWIDTH 655 0
DWIDTH 21 0
BBX 17 25 2 0
BITMAP
033000
033000
033000
033000
000000
000000
03E000
0FF800
3E3E00
380E00
700700
600300
E00380
C00180
C00180
C00180
C00180
C00180
E00380
600300
700700
380E00
3E3E00
0FF800
03E000
ENDCHAR

STARTCHAR divide
ENCODING 247
SWIDTH 606 0
DWIDTH 20 0
BBX 16 16 2 2
BITMAP
0180
0180
0180
0000
0000
0000
0000
FFFF
FFFF
0000
0000
0000
0000
0180
0180
0180
ENDCHAR

STARTCHAR oslash
ENCODING 248
SWIDTH 653 0
DWIDTH 21 0
BBX 17 21 2 -1
BITMAP
000180
03E380
0FFF00
1E1E00
380E00
701F00
603B00
E03380
C06180
C0E180
C0C180
C18180
C38180
E30380
660300
6E0700
3C0E00
3C3E00
3FF800
73E000
600000
ENDCHAR

STARTCHAR ugrave
ENCODING 249
SWIDTH 608 0
DWIDTH 20 0
BBX 15 26 2 0
BITMAP
0400
0E00
0F80
03C0
00E0
0040
0000
C006
C006
C006
C006
C006
C006
C006
C006
C006
C006
C006
C006
C006
C006
E00E
601E
787E
3FF6
0FC6
ENDCHAR

STARTCHAR uacute
ENCODING 250
SWIDTH 608 0
DWIDTH 20 0
BBX 15 26 2 0
BITMAP
0020
0070
01F0
07C0
0700
0200
0000
C006
C006
C006
C006
C006
C006
C006
C006
C006
C006
C006
C006
C006
C006
E00E
601E
787E
3FF6
0FC6
ENDCHAR

STARTCHAR ucircumflex
ENCODING 251
SWIDTH 608 0
DWIDTH 20 0
BBX 15 25 2 0
BITMAP
0380
07C0
0EE0
1C70
0000
0000
C006
C006
C006
C006
C006
C006
C006
C006
C006
C006
C006
C006
C006
C006
E00E
601E
787E
3FF6
0FC6
ENDCHAR

STARTCHAR udieresis
ENCODING 252
SWIDTH 608 0
DWIDTH 20 0
BBX 15 25 2 0
BITMAP
0660
0660
0660
0660
0000
0000
C006
C006
C006
C006
C006
C006
C006
C006
C006
C006
C006
C006
C006
C006
E00E
601E
787E
3FF6
0FC6
ENDCHAR

STARTCHAR yacute
ENCODING 253
SWIDTH 536 0
DWIDTH 17 0
BBX 17 32 0 -6
BITMAP
000800
001C00
007C00
01F000
01C000
008000
000000
E00380
600300
700700
700600
300E00
380E00
381C00
181C00
1C1800
0C3800
0C3000
0E3000
067000
076000
036000
03C000
03C000
01C000
018000
038000
030000
070000
060000
0E0000
1C0000
ENDCHAR

STARTCHAR thorn
ENCODING 254
SWIDTH 682 0
DWIDTH 23 0
BBX 18 31 3 -6
BITMAP
C00000
C00000
C00000
C00000
C00000
C00000
C3F000
CFFC00
DE1E00
F80700
F00380
E00180
E001C0
E000C0
C000C0
C000C0
C000C0
C000C0
E001C0
E00180
F00380
F80700
DE1E00
CFFC00
C3F000
C00000
C00000
C00000
C00000
C00000
C00000
ENDCHAR

STARTCHAR ydieresis
ENCODING 255
SWIDTH 536 0
DWIDTH 17 0
BBX 17 31 0 -6
BITMAP
033000
033000
033000
033000
000000
000000
E00380
600300
700700
700600
300E00
380E00
381C00
181C00
1C1800
0C3800
0C3000
0E3000
067000
076000
036000
03C000
03C000
01C000
018000
038000
030000
070000
060000
0E0000
1C0000
ENDCHAR
ENDFONT
